v 12.641774 -13.119111 2.906045
v 25.047829 -13.119111 2.906045
v 12.641774 -12 2.906045
v 25.047829 -12 2.906045
v 12.641774 -12 -6.541690
v 25.047829 -12 -6.541690
v 12.641774 -13.119111 -6.541690
v 25.047829 -13.119111 -6.541690
v 13.604505 -18 1.064704
v 14.531418 -18 1.064704
v 13.604505 -13.119111 1.064704
v 14.531418 -13.119111 1.064704
v 13.604505 -13.119111 0.064704
v 14.531418 -13.119111 0.064704
v 13.604505 -18 0.064704
v 14.531418 -18 0.064704
v 13.604505 -18 -4.388295
v 14.531456 -18 -4.388295
v 13.604505 -13.119111 -4.388295
v 14.531456 -13.119111 -4.388295
v 13.604505 -13.119111 -5.388295
v 14.531456 -13.119111 -5.388295
v 13.604505 -18 -5.388295
v 14.531456 -18 -5.388295
v 22.720298 -18 1.065000
v 23.793385 -18 1.065000
v 22.720298 -13.119111 1.065000
v 23.793385 -13.119111 1.065000
v 22.720298 -13.119111 0.065000
v 23.793385 -13.119111 0.065000
v 22.720298 -18 0.065000
v 23.793385 -18 0.065000
v 22.720457 -18 -4.388000
v 23.793543 -18 -4.388000
v 22.720457 -13.119111 -4.388000
v 23.793543 -13.119111 -4.388000
v 22.720457 -13.119111 -5.388000
v 23.793543 -13.119111 -5.388000
v 22.720457 -18 -5.388000
v 23.793543 -18 -5.388000
vt 0.375000 0.000000
vt 0.625000 0.000000
vt 0.625000 0.250000
vt 0.375000 0.250000
vt 0.625000 0.500000
vt 0.375000 0.500000
vt 0.625000 0.750000
vt 0.375000 0.750000
vt 0.625000 1.000000
vt 0.375000 1.000000
vt 0.875000 0.000000
vt 0.875000 0.250000
vt 0.125000 0.000000
vt 0.125000 0.250000
vt 0.375000 0.000000
vt 0.625000 0.000000
vt 0.625000 0.250000
vt 0.375000 0.250000
vt 0.625000 0.500000
vt 0.375000 0.500000
vt 0.625000 0.750000
vt 0.375000 0.750000
vt 0.625000 1.000000
vt 0.375000 1.000000
vt 0.875000 0.000000
vt 0.875000 0.250000
vt 0.125000 0.000000
vt 0.125000 0.250000
vt 0.375000 0.000000
vt 0.625000 0.000000
vt 0.625000 0.250000
vt 0.375000 0.250000
vt 0.625000 0.500000
vt 0.375000 0.500000
vt 0.625000 0.750000
vt 0.375000 0.750000
vt 0.625000 1.000000
vt 0.375000 1.000000
vt 0.875000 0.000000
vt 0.875000 0.250000
vt 0.125000 0.000000
vt 0.125000 0.250000
vt 0.375000 0.000000
vt 0.625000 0.000000
vt 0.625000 0.250000
vt 0.375000 0.250000
vt 0.625000 0.500000
vt 0.375000 0.500000
vt 0.625000 0.750000
vt 0.375000 0.750000
vt 0.625000 1.000000
vt 0.375000 1.000000
vt 0.875000 0.000000
vt 0.875000 0.250000
vt 0.125000 0.000000
vt 0.125000 0.250000
vt 0.375000 0.000000
vt 0.625000 0.000000
vt 0.625000 0.250000
vt 0.375000 0.250000
vt 0.625000 0.500000
vt 0.375000 0.500000
vt 0.625000 0.750000
vt 0.375000 0.750000
vt 0.625000 1.000000
vt 0.375000 1.000000
vt 0.875000 0.000000
vt 0.875000 0.250000
vt 0.125000 0.000000
vt 0.125000 0.250000
vn 0.000000 0.000000 1.000000
vn 0.000000 0.000000 1.000000
vn 0.000000 0.000000 1.000000
vn 0.000000 0.000000 1.000000
vn 0.000000 1.000000 0.000000
vn 0.000000 1.000000 0.000000
vn 0.000000 1.000000 0.000000
vn 0.000000 1.000000 0.000000
vn 0.000000 0.000000 -1.000000
vn 0.000000 0.000000 -1.000000
vn 0.000000 0.000000 -1.000000
vn 0.000000 0.000000 -1.000000
vn 0.000000 -1.000000 0.000000
vn 0.000000 -1.000000 0.000000
vn 0.000000 -1.000000 0.000000
vn 0.000000 -1.000000 0.000000
vn 1.000000 0.000000 0.000000
vn 1.000000 0.000000 0.000000
vn 1.000000 0.000000 0.000000
vn 1.000000 0.000000 0.000000
vn -1.000000 0.000000 0.000000
vn -1.000000 0.000000 0.000000
vn -1.000000 0.000000 0.000000
vn -1.000000 0.000000 0.000000
vn 0.000000 0.000000 1.000000
vn 0.000000 0.000000 1.000000
vn 0.000000 0.000000 1.000000
vn 0.000000 0.000000 1.000000
vn 0.000000 1.000000 0.000000
vn 0.000000 1.000000 0.000000
vn 0.000000 1.000000 0.000000
vn 0.000000 1.000000 0.000000
vn 0.000000 0.000000 -1.000000
vn 0.000000 0.000000 -1.000000
vn 0.000000 0.000000 -1.000000
vn 0.000000 0.000000 -1.000000
vn 0.000000 -1.000000 0.000000
vn 0.000000 -1.000000 0.000000
vn 0.000000 -1.000000 0.000000
vn 0.000000 -1.000000 0.000000
vn 1.000000 0.000000 0.000000
vn 1.000000 0.000000 0.000000
vn 1.000000 0.000000 0.000000
vn 1.000000 0.000000 0.000000
vn -1.000000 0.000000 0.000000
vn -1.000000 0.000000 0.000000
vn -1.000000 0.000000 0.000000
vn -1.000000 0.000000 0.000000
vn 0.000000 0.000000 1.000000
vn 0.000000 0.000000 1.000000
vn 0.000000 0.000000 1.000000
vn 0.000000 0.000000 1.000000
vn 0.000000 1.000000 0.000000
vn 0.000000 1.000000 0.000000
vn 0.000000 1.000000 0.000000
vn 0.000000 1.000000 0.000000
vn 0.000000 0.000000 -1.000000
vn 0.000000 0.000000 -1.000000
vn 0.000000 0.000000 -1.000000
vn 0.000000 0.000000 -1.000000
vn 0.000000 -1.000000 0.000000
vn 0.000000 -1.000000 0.000000
vn 0.000000 -1.000000 0.000000
vn 0.000000 -1.000000 0.000000
vn 1.000000 0.000000 0.000000
vn 1.000000 0.000000 0.000000
vn 1.000000 0.000000 0.000000
vn 1.000000 0.000000 0.000000
vn -1.000000 0.000000 0.000000
vn -1.000000 0.000000 0.000000
vn -1.000000 0.000000 0.000000
vn -1.000000 0.000000 0.000000
vn 0.000000 0.000000 1.000000
vn 0.000000 0.000000 1.000000
vn 0.000000 0.000000 1.000000
vn 0.000000 0.000000 1.000000
vn 0.000000 1.000000 0.000000
vn 0.000000 1.000000 0.000000
vn 0.000000 1.000000 0.000000
vn 0.000000 1.000000 0.000000
vn 0.000000 0.000000 -1.000000
vn 0.000000 0.000000 -1.000000
vn 0.000000 0.000000 -1.000000
vn 0.000000 0.000000 -1.000000
vn 0.000000 -1.000000 0.000000
vn 0.000000 -1.000000 0.000000
vn 0.000000 -1.000000 0.000000
vn 0.000000 -1.000000 0.000000
vn 1.000000 0.000000 0.000000
vn 1.000000 0.000000 0.000000
vn 1.000000 0.000000 0.000000
vn 1.000000 0.000000 0.000000
vn -1.000000 0.000000 0.000000
vn -1.000000 0.000000 0.000000
vn -1.000000 0.000000 0.000000
vn -1.000000 0.000000 0.000000
vn 0.000000 0.000000 1.000000
vn 0.000000 0.000000 1.000000
vn 0.000000 0.000000 1.000000
vn 0.000000 0.000000 1.000000
vn 0.000000 1.000000 0.000000
vn 0.000000 1.000000 0.000000
vn 0.000000 1.000000 0.000000
vn 0.000000 1.000000 0.000000
vn 0.000000 0.000000 -1.000000
vn 0.000000 0.000000 -1.000000
vn 0.000000 0.000000 -1.000000
vn 0.000000 0.000000 -1.000000
vn 0.000000 -1.000000 0.000000
vn 0.000000 -1.000000 0.000000
vn 0.000000 -1.000000 0.000000
vn 0.000000 -1.000000 0.000000
vn 1.000000 0.000000 0.000000
vn 1.000000 0.000000 0.000000
vn 1.000000 0.000000 0.000000
vn 1.000000 0.000000 0.000000
vn -1.000000 0.000000 0.000000
vn -1.000000 0.000000 0.000000
vn -1.000000 0.000000 0.000000
vn -1.000000 0.000000 0.000000
f 9/15/46 15/27/45 13/28/47
f 9/15/46 13/28/47 11/18/48
f 13/20/33 14/19/34 15/22/35
f 15/22/35 14/19/34 16/21/36
f 1/1/1 2/2/2 3/4/3
f 3/4/3 2/2/2 4/3/4
f 3/4/5 4/3/6 5/6/7
f 5/6/7 4/3/6 6/5/8
f 5/6/9 6/5/10 7/8/11
f 7/8/11 6/5/10 8/7/12
f 7/8/13 8/7/14 1/10/15
f 1/10/15 8/7/14 2/9/16
f 2/2/17 8/11/18 4/3/19
f 4/3/19 8/11/18 6/12/20
f 7/13/21 1/1/22 5/14/23
f 5/14/23 1/1/22 3/4/24
f 9/15/25 10/16/26 11/18/27
f 11/18/27 10/16/26 12/17/28
f 11/18/29 12/17/30 13/20/31
f 13/20/31 12/17/30 14/19/32
f 15/22/37 16/21/38 9/24/39
f 9/24/39 16/21/38 10/23/40
f 10/16/41 16/25/42 12/17/43
f 12/17/43 16/25/42 14/26/44
f 17/29/49 18/30/50 19/32/51
f 19/32/51 18/30/50 20/31/52
f 19/32/53 20/31/54 21/34/55
f 21/34/55 20/31/54 22/33/56
f 21/34/57 22/33/58 23/36/59
f 23/36/59 22/33/58 24/35/60
f 23/36/61 24/35/62 17/38/63
f 17/38/63 24/35/62 18/37/64
f 18/30/65 24/39/66 20/31/67
f 20/31/67 24/39/66 22/40/68
f 23/41/69 17/29/70 21/42/71
f 21/42/71 17/29/70 19/32/72
f 25/43/73 26/44/74 27/46/75
f 27/46/75 26/44/74 28/45/76
f 27/46/77 28/45/78 29/48/79
f 29/48/79 28/45/78 30/47/80
f 29/48/81 30/47/82 31/50/83
f 31/50/83 30/47/82 32/49/84
f 31/50/85 32/49/86 25/52/87
f 25/52/87 32/49/86 26/51/88
f 26/44/89 32/53/90 28/45/91
f 28/45/91 32/53/90 30/54/92
f 31/55/93 25/43/94 29/56/95
f 29/56/95 25/43/94 27/46/96
f 33/57/97 34/58/98 35/60/99
f 35/60/99 34/58/98 36/59/100
f 35/60/101 36/59/102 37/62/103
f 37/62/103 36/59/102 38/61/104
f 37/62/105 38/61/106 39/64/107
f 39/64/107 38/61/106 40/63/108
f 39/64/109 40/63/110 33/66/111
f 33/66/111 40/63/110 34/65/112
f 34/58/113 40/67/114 36/59/115
f 36/59/115 40/67/114 38/68/116
f 39/69/117 33/57/118 37/70/119
f 37/70/119 33/57/118 35/60/120